<svg xmlns="http://www.w3.org/2000/svg" height="504px" viewBox="0 -22 504 482" width="504px">
  <path fill="white" d="M 250.346 32.177 L 430.326 133.818 L 434.374 308.657 C 434.374 308.657 257.329 444.248 257.607 403.965 C 57.885 343.682 75.022 236.382 75.022 336.382 L 76.376 136.806 L 200.346 32.177 Z"/>
  <g transform="matrix(1.890103, 0, 0, 1.890103, -27.438263, -27.043961)">
    <path fill="#374FBE" d="M273.336,124.488L215.469,23.816c-2.102-3.64-5.985-6.325-10.188-6.325H89.545 c-4.204,0-8.088,2.685-10.19,6.325l-57.867,100.45c-2.102,3.641-2.102,8.236,0,11.877l57.867,99.847 c2.102,3.64,5.986,5.501,10.19,5.501h115.735c4.203,0,8.087-1.805,10.188-5.446l57.867-100.01 C275.439,132.396,275.439,128.128,273.336,124.488 M225.419,172.898c0,1.48-0.891,2.849-2.174,3.59l-73.71,42.527 c-1.282,0.74-2.888,0.74-4.17,0l-73.767-42.527c-1.282-0.741-2.179-2.109-2.179-3.59V87.843c0-1.481,0.884-2.849,2.167-3.59 l73.707-42.527c1.282-0.741,2.886-0.741,4.168,0l73.772,42.527c1.283,0.741,2.186,2.109,2.186,3.59V172.898z"/>
  </g>

  <g fill="#374fbe">
    <path d="M 170 175 L 170 275 L 230 275 L 230 255 L 192 255 L 192 175 Z" />
    <path d="M 265 175 L 330 175 L 330 195 L 285 255 L 330 255 L 330 275 L 265 275 L 265 255 L 310 195 L 265 195 Z" />
  </g>
</svg>